{"title":"Dalziel &amp; Pascoe S02","uid":15508568,"size":2825254324,"categoryP":"video","categoryS":"tv_shows","magnet":"?xt=urn:btih:9f018bd13e7abba66a81ba2d65a3ff0e9175af59&amp;dn=Dalziel+%26amp%3B+Pascoe+S02&amp;tr=udp%3A%2F%2Ftracker.leechers-paradise.org%3A6969&amp;tr=udp%3A%2F%2Fzer0day.ch%3A1337&amp;tr=udp%3A%2F%2Fopen.demonii.com%3A1337&amp;tr=udp%3A%2F%2Ftracker.coppersurfer.tk%3A6969&amp;tr=udp%3A%2F%2Fexodus.desync.com%3A6969","seeders":3,"leechers":1,"uploader":"RedBaron58","files":4,"time":1470618345,"description":"Dalziel and Pascoe S02 DVDrip x264 mp4\r\n  \nhttp://www.imdb.com/title/tt0147760/\r\n\r\nThank you for your kind comments and feedback on my other torrents, your feedback is welcome.\r\n\r\n\r\nAbout the Series:\r\nThe series is primarily set in Yorkshire, and follows the work of two detectives that are \r\nthrown together as partners. Complete opposites. Different backgrounds, different beliefs, \r\ndifferent styles. They get on each other's nerves. They are continually embarrassed by \r\neach other. But their differences make them a stunningly brilliant crime-solving team.\r\n\r\n\r\n\r\nI hope you enjoy.\r\n\r\n\r\nTechnical: (All episodes are encoded to the same settings)\r\n\r\nGeneral\r\nComplete name                            : I:Dalziel &amp; Pascoe S02Dalziel Pascoe S02E01 - Ruling Passion x264 RB58.mp4\r\nFormat                                   : MPEG-4\r\nFormat profile                           : Base Media / Version 2\r\nCodec ID                                 : mp42\r\nFile size                                : 666 MiB\r\nDuration                                 : 1h 33mn\r\nOverall bit rate mode                    : Variable\r\nOverall bit rate                         : 1 000 Kbps\r\nEncoded date                             : UTC 2016-07-25 12:54:58\r\nTagged date                              : UTC 2016-07-25 12:58:02\r\nWriting application                      : HandBrake 0.9.8 2012071700\r\n\r\nVideo\r\nID                                       : 1\r\nFormat                                   : AVC\r\nFormat/Info                              : Advanced Video Codec\r\nFormat profile                           :   \r\nFormat settings, CABAC                   : Yes\r\nFormat settings, ReFrames                : 4 frames\r\nCodec ID                                 : avc1\r\nCodec ID/Info                            : Advanced Video Coding\r\nDuration                                 : 1h 33mn\r\nBit rate                                 : 900 Kbps\r\nWidth                                    : 702 pixels\r\nHeight                                   : 496 pixels\r\nDisplay aspect ratio                     : 3:2\r\nFrame rate mode                          : Variable\r\nFrame rate                               : 25.000 fps\r\nMinimum frame rate                       : 8.333 fps\r\nMaximum frame rate                       : 25.000 fps\r\nColor space                              : YUV\r\nChroma subsampling                       : 4:2:0\r\nBit depth                                : 8 bits\r\nScan type                                : Progressive\r\nBits/(Pixel*Frame)                       : 0.103\r\nStream size                              : 599 MiB (90%)\r\nWriting library                          : x264 core 120\r\nEncoding settings                        : cabac=1 / ref=1 / deblock=1:0:0\r\nEncoded date                             : UTC 2016-07-25 12:54:58\r\nTagged date                              : UTC 2016-07-25 12:58:02\r\nColor range                              : Limited\r\nColor primaries                          : BT.601 NTSC\r\nTransfer characteristics                 : BT.709\r\nMatrix coefficients                      : BT.601\r\n\r\nAudio\r\nID                                       : 2\r\nFormat                                   : AAC\r\nFormat/Info                              : Advanced Audio Codec\r\nFormat profile                           : LC\r\nCodec ID                                 : 40\r\nDuration                                 : 1h 33mn\r\nBit rate mode                            : Variable\r\nBit rate                                 : 96.0 Kbps\r\nMaximum bit rate                         : 118 Kbps\r\nChannel(s)                               : 2 channels\r\nChannel positions                        : Front: L R\r\nSampling rate                            : 48.0 KHz\r\nCompression mode                         : Lossy\r\nStream size                              : 63.9 MiB (10%)\r\nTitle                                    : Stereo\r\nLanguage                                 : English","torrent":{"xt":"urn:btih:9f018bd13e7abba66a81ba2d65a3ff0e9175af59","amp;dn":"Dalziel+%26amp%3B+Pascoe+S02","amp;tr":["udp%3A%2F%2Ftracker.leechers-paradise.org%3A6969","udp%3A%2F%2Fzer0day.ch%3A1337","udp%3A%2F%2Fopen.demonii.com%3A1337","udp%3A%2F%2Ftracker.coppersurfer.tk%3A6969","udp%3A%2F%2Fexodus.desync.com%3A6969"],"infoHash":"9f018bd13e7abba66a81ba2d65a3ff0e9175af59","infoHashBuffer":{"type":"Buffer","data":[159,1,139,209,62,122,187,166,106,129,186,45,101,163,255,14,145,117,175,89]},"announce":[],"urlList":[]}}